<svg id="Layer_1" data-name="Layer 1" xmlns="http://www.w3.org/2000/svg" viewBox="0 0 256 256"><defs><style>.cls-1{fill:#fff;}</style></defs><path class="cls-1" d="M0,256V0H256V256Zm122.81-31.52v15.4c9.93,2.49,10.77,1.86,10.78-7.7a17.65,17.65,0,0,0,0-3c-.75-4.39,1.37-5.61,5.47-6,37.33-3.93,69.84-30.8,80.61-66.77,2.22-7.41,3.42-15.13,5.2-23.22h15.84V122.41h-16c-8.22-53.32-38.43-83.27-91.26-91.14V15.35H122.71V31.71c-2.71.41-5,.81-7.27,1.08-39.93,4.84-74.34,37.1-81.52,76.5-.74,4.09,0,9.82-2.42,11.85-2.64,2.21-8.15,1.29-12.4,1.21-5.16-.11-3.61,3.7-4,6.27-.44,2.91.5,4.83,4,4.69,4.13-.17,8.28,0,12.41,0C39.3,186.3,69.44,216.54,122.81,224.48Z"/><path d="M122.81,224.48c-53.37-7.94-83.51-38.18-91.28-91.21-4.13,0-8.28-.13-12.41,0-3.52.14-4.46-1.78-4-4.69.39-2.57-1.16-6.38,4-6.27,4.25.08,9.76,1,12.4-1.21,2.42-2,1.68-7.76,2.42-11.85,7.18-39.4,41.59-71.66,81.52-76.5,2.28-.27,4.56-.67,7.27-1.08V15.35h10.74V31.27c52.83,7.87,83,37.82,91.26,91.14h16v10.74H224.84c-1.78,8.09-3,15.81-5.2,23.22-10.77,36-43.28,62.84-80.61,66.77-4.1.43-6.22,1.65-5.47,6a17.65,17.65,0,0,1,0,3c0,9.56-.85,10.19-10.78,7.7Zm-.09-139.25c-17.71-.3-37.61,19.55-37.33,37.21h15.15v10.95H85.39c-.55,17.43,20.24,38.13,37.51,37.15V155.32h10.73v15.41c18.55-.37,39.72-22.19,36.65-37.45-3.23,0-6.57-.24-9.85.05-4.75.43-5.87-1.89-5.21-6,.23-1.45.39-2.91.67-5h14.9c-.23-19.28-21-37.73-37.2-36.93,0,2.91,0,5.86,0,8.81,0,6.73-.51,7.18-7.13,6.41-1.12-.13-2.24-.34-3.73-.57Zm0,127.29c0-9.37.1-18.34-.13-27.31,0-1.05-1.68-2.76-2.83-3q-38.1-7.87-45.93-45.9c-.23-1.12-1.6-2.85-2.47-2.87-9.27-.21-18.55-.13-27.84-.13C44.89,174.6,80.51,210.92,122.71,212.52Zm11-169c0,9.26-.09,18.53.13,27.79,0,.85,1.87,2.17,3.05,2.42q37.44,7.86,45.38,45.21c.26,1.22,1.45,3.2,2.25,3.22,9.4.22,18.81.14,28.23.14C210.69,77.84,171.84,44.05,133.68,43.51Z"/><path class="cls-1" d="M122.72,85.23v14.83c1.49.23,2.61.44,3.73.57,6.62.77,7.11.32,7.13-6.41,0-3,0-5.9,0-8.81,16.24-.8,37,17.65,37.2,36.93h-14.9c-.28,2.1-.44,3.56-.67,5-.66,4.09.46,6.41,5.21,6,3.28-.29,6.62-.05,9.85-.05,3.07,15.26-18.1,37.08-36.65,37.45V155.32H122.9v15.22c-17.27,1-38.06-19.72-37.51-37.15h15.15V122.44H85.39C85.11,104.78,105,84.93,122.72,85.23Z"/><path class="cls-1" d="M122.71,212.52c-42.2-1.6-77.82-37.92-79.2-79.21,9.29,0,18.57-.08,27.84.13.87,0,2.24,1.75,2.47,2.87q7.89,38.1,45.93,45.9c1.15.24,2.8,1.95,2.83,3C122.81,194.18,122.71,203.15,122.71,212.52Z"/><path class="cls-1" d="M133.68,43.51c38.16.54,77,34.33,79,78.78-9.42,0-18.83.08-28.23-.14-.8,0-2-2-2.25-3.22q-8-37.4-45.38-45.21c-1.18-.25-3-1.57-3.05-2.42C133.59,62,133.68,52.77,133.68,43.51Z"/></svg>