<svg id="Layer_1" data-name="Layer 1" xmlns="http://www.w3.org/2000/svg" viewBox="0 0 74.43 74.43"><defs><style>.cls-1{fill:#fff;}</style></defs><path class="cls-1" d="M0,30.32V0H74.43V74.43H0V45.12c.76,2.09,2.3,2.74,4.43,2.65,2.7-.1,5.41,0,8.12,0a1.84,1.84,0,0,1,1.1.39c1.47,1.17,2.91,2.39,4.36,3.59l13.4,11.1a3.45,3.45,0,0,0,2.73.93c1.89-.24,3-1.64,3-3.78V20.34c0-1.74.06-3.49,0-5.22a4.37,4.37,0,0,0-.69-2.22c-1.21-1.71-3.34-1.81-5.08-.37q-8.84,7.3-17.66,14.6a1.93,1.93,0,0,1-1.15.42c-2.76,0-5.52.08-8.27,0C2.15,27.49.66,28.23,0,30.32Zm74.32,6.24c-.14-1.37-.29-3.89-.71-6.36a42.67,42.67,0,0,0-10-21,3.41,3.41,0,0,0-4.94-.63C56.75,10.19,56.5,12.15,58,14c.73.9,1.49,1.78,2.16,2.73a35.43,35.43,0,0,1,6.43,25.65A35.21,35.21,0,0,1,63.1,53.71a42.31,42.31,0,0,1-4.61,7.1c-1.37,1.78-1,3.72.92,5.24a3.37,3.37,0,0,0,4.87-.71C70.87,57.3,74.15,48.07,74.32,36.56Zm-16.38.84A26.46,26.46,0,0,0,52,20.76a3.4,3.4,0,0,0-4.15-1.08,3.74,3.74,0,0,0-2.28,4.17,7.85,7.85,0,0,0,1.28,2.31A19.46,19.46,0,0,1,50,42.56a21.46,21.46,0,0,1-3.31,7c-1.15,1.71-.54,3.78,1.36,5.07a3.37,3.37,0,0,0,4.68-.9A26.89,26.89,0,0,0,57.94,37.4Z"/><path d="M0,30.32c.66-2.09,2.15-2.83,4.27-2.77,2.75.08,5.51,0,8.27,0a1.93,1.93,0,0,0,1.15-.42q8.85-7.27,17.66-14.6c1.74-1.44,3.87-1.34,5.08.37a4.37,4.37,0,0,1,.69,2.22c.1,1.73,0,3.48,0,5.22V60c0,2.14-1.13,3.54-3,3.78a3.45,3.45,0,0,1-2.73-.93L18,51.75c-1.45-1.2-2.89-2.42-4.36-3.59a1.84,1.84,0,0,0-1.1-.39c-2.71,0-5.42-.1-8.12,0C2.3,47.86.76,47.21,0,45.12Z"/><path d="M74.32,36.56c-.17,11.51-3.45,20.74-10,28.78a3.37,3.37,0,0,1-4.87.71c-1.91-1.52-2.29-3.46-.92-5.24a42.31,42.31,0,0,0,4.61-7.1,35.21,35.21,0,0,0,3.47-11.37,35.43,35.43,0,0,0-6.43-25.65c-.67-1-1.43-1.83-2.16-2.73-1.48-1.81-1.23-3.77.7-5.38a3.41,3.41,0,0,1,4.94.63,42.67,42.67,0,0,1,10,21C74,32.67,74.18,35.19,74.32,36.56Z"/><path d="M57.94,37.4a26.89,26.89,0,0,1-5.26,16.29,3.37,3.37,0,0,1-4.68.9c-1.9-1.29-2.51-3.36-1.36-5.07a21.46,21.46,0,0,0,3.31-7,19.46,19.46,0,0,0-3.09-16.4,7.85,7.85,0,0,1-1.28-2.31,3.74,3.74,0,0,1,2.28-4.17A3.4,3.4,0,0,1,52,20.76,26.46,26.46,0,0,1,57.94,37.4Z"/></svg>