<svg id="bold" enable-background="new 0 0 24 24" height="512" viewBox="0 0 24 24" width="512" xmlns="http://www.w3.org/2000/svg"><path d="m22.241 7h-.241v-.25c0-1.517-1.234-2.75-2.75-2.75h-16.5c-1.516 0-2.75 1.233-2.75 2.75v9.5c0 1.517 1.234 2.75 2.75 2.75h16.5c1.516 0 2.75-1.233 2.75-2.75v-.25h.241c.965 0 1.75-.785 1.75-1.75v-5.5c0-.965-.785-1.75-1.75-1.75zm-8.324 3.77-3.496 5.499c-.093.147-.254.231-.421.231-.057 0-.114-.01-.169-.029-.22-.08-.356-.301-.327-.533l.43-3.438-1.438-.002c-.188 0-.359-.105-.444-.271-.085-.167-.071-.367.038-.52l3.576-4.999c.135-.188.384-.258.598-.171.215.089.34.314.303.543l-.479 2.92 1.408.002c.183 0 .35.1.438.26.087.159.081.354-.017.508z"/></svg>