<svg id="Layer_1" data-name="Layer 1" xmlns="http://www.w3.org/2000/svg" viewBox="0 0 256 256"><defs><style>.cls-1{fill:#fff;}</style></defs><path class="cls-1" d="M256,256H0V0H256ZM124.8,234.63c57.8,2.6,106.9-43.55,109.82-103.21,2.83-57.89-43.86-107.57-103.45-110.08C73.22,18.9,24.09,65.07,21.35,124.55,18.68,182.61,65,231.94,124.8,234.63Z"/><path d="M124.8,234.63C65,231.94,18.68,182.61,21.35,124.55,24.09,65.07,73.22,18.9,131.17,21.34c59.59,2.51,106.28,52.19,103.45,110.08C231.7,191.08,182.6,237.23,124.8,234.63ZM213.22,128a85.23,85.23,0,1,0-85.14,85.2A85.1,85.1,0,0,0,213.22,128Z"/><path class="cls-1" d="M213.22,128a85.23,85.23,0,1,1-85.08-85.26A85.11,85.11,0,0,1,213.22,128Zm-96.3,42.47V85.56H96.38v84.93Zm42.86-85H139.1V170.4h20.68Z"/><path d="M116.92,170.49H96.38V85.56h20.54Z"/><path d="M159.78,85.51V170.4H139.1V85.51Z"/></svg>