<?xml version="1.0" encoding="iso-8859-1"?>
<!-- Generator: Adobe Illustrator 16.0.0, SVG Export Plug-In . SVG Version: 6.00 Build 0)  -->
<!DOCTYPE svg PUBLIC "-//W3C//DTD SVG 1.1//EN" "http://www.w3.org/Graphics/SVG/1.1/DTD/svg11.dtd">
<svg version="1.1" id="Capa_1" xmlns="http://www.w3.org/2000/svg" xmlns:xlink="http://www.w3.org/1999/xlink" x="0px" y="0px"
	width="487.336px" height="487.335px" viewBox="0 0 487.336 487.335" style="enable-background:new 0 0 487.336 487.335;"
	xml:space="preserve">
<g>
	<g>
		<path d="M243.573,24.136C109.269,24.76,0,134.531,0,268.832c0,40.784,10.226,80.992,29.563,116.62v-64.692
			c0-11.925,4.243-22.984,11.683-32.471c-0.616-6.453-0.933-12.946-0.933-19.457c0-112.177,91.265-203.861,203.261-204.382
			c112.183,0.519,203.447,92.205,203.447,204.382c0,7.21-0.4,14.396-1.156,21.533c6.467,9.01,10.116,19.33,10.116,30.395v67.975
			c20.508-36.43,31.354-77.864,31.354-119.902C487.336,134.531,378.067,24.76,243.573,24.136z"/>
		<path d="M44.578,310.312c-1.03,3.373-1.578,6.867-1.578,10.449v62.352v29.023c0,28.199,33.586,51.063,75.019,51.063h31.586V269.7
			h-31.586C81.848,269.699,51.665,287.121,44.578,310.312z"/>
		<path d="M442.543,412.136v-30.037v-61.338c0-2.201-0.229-4.367-0.626-6.496c-4.69-25.133-36.196-44.565-74.394-44.565h-31.586
			v193.5h31.587C408.958,463.199,442.543,440.335,442.543,412.136z"/>
	</g>
</g>
<g>
</g>
<g>
</g>
<g>
</g>
<g>
</g>
<g>
</g>
<g>
</g>
<g>
</g>
<g>
</g>
<g>
</g>
<g>
</g>
<g>
</g>
<g>
</g>
<g>
</g>
<g>
</g>
<g>
</g>
</svg>
