<svg id="Layer_1" data-name="Layer 1" xmlns="http://www.w3.org/2000/svg" viewBox="0 0 359.72 512"><path d="M306.32,51.1C272.51,18.46,227.47.31,179.5,0A183.34,183.34,0,0,0,69.09,35.47C38,58.23,15,90.64,4.1,126.72c-7.68,25.52-4.53,53.34,9.11,80.46C42,264.37,50.14,317,41.28,388.71c-4.78,38.72,4.39,70.62,26.5,92.26a109.84,109.84,0,0,0,76.75,31c2.25,0,4.52-.07,6.78-.21a109,109,0,0,0,70.61-31.74,102.93,102.93,0,0,0,28.23-95.36c-5-22.84,5.81-47.17,27-60.55,52.36-33.09,83.24-89.06,82.59-149.69A172.84,172.84,0,0,0,306.32,51.1ZM277.93,217.6a26.53,26.53,0,0,1-26.5-26.5c0-35.15-29.9-63.75-66.64-63.75-26.27,0-50,15.17-60.68,37.45a76.71,76.71,0,0,1,17.38,6.34c26.46,13.52,43,42.17,41.07,71.3-1.86,28.64-21.48,54.84-48.83,65.21a26.5,26.5,0,1,1-18.79-49.56c8.15-3.09,14.21-10.94,14.74-19.09s-4.53-16.69-12.3-20.66a25.72,25.72,0,0,0-18.25-1.64,26.5,26.5,0,0,1-34-25.42v-.18c0-64.37,53.67-116.75,119.64-116.75S304.43,126.73,304.43,191.1A26.53,26.53,0,0,1,277.93,217.6Z"/></svg>