<svg height="512pt" viewBox="0 0 512 512.00075" width="512pt" xmlns="http://www.w3.org/2000/svg"><path d="m330.472656 71.039062c-59.625 0-108.136718 47.214844-108.136718 105.25v.175782c0 4.726562 2.230468 9.179687 6.015624 12.011718 3.785157 2.832032 8.683594 3.710938 13.21875 2.378907 8.730469-2.566407 18.71875-1.660157 26.722657 2.425781 11.921875 6.09375 19.375 18.8125 18.542969 31.648438-.828126 12.699218-9.722657 24.394531-22.136719 29.097656-7.746094 2.9375-11.644531 11.597656-8.710938 19.34375 2.273438 5.996094 7.976563 9.6875 14.03125 9.6875 1.765625 0 3.5625-.316406 5.3125-.976563 23.210938-8.796875 39.863281-30.980469 41.4375-55.207031 1.601563-24.613281-12.398437-48.847656-34.832031-60.308594-8.539062-4.363281-18.035156-6.757812-27.628906-7.117187 7.960937-33.410157 39.089844-58.410157 76.164062-58.410157 43.085938 0 78.136719 33.757813 78.136719 75.25 0 8.285157 6.71875 15 15 15 8.285156 0 15.003906-6.714843 15.003906-15 0-58.035156-48.511719-105.25-108.140625-105.25zm0 0"/><path d="m458.519531 51.097656c-33.8125-32.640625-78.851562-50.785156-126.820312-51.09374975-40.257813-.25000025-78.394531 12.00781275-110.40625 35.46874975-31.050781 22.757813-54.132813 55.164063-64.996094 91.25-7.679687 25.519532-4.527344 53.339844 9.117187 80.453125 28.789063 57.195313 36.921876 109.789063 28.066407 181.535157-4.777344 38.722656 4.386719 70.621093 26.503906 92.253906 20.375 19.925781 48.027344 31.035156 76.746094 31.035156 2.253906 0 4.515625-.066406 6.777343-.207031 26.738282-1.628907 51.816407-12.902344 70.609376-31.742188 18.898437-18.941406 29.757812-43.816406 30.578124-70.042969.265626-8.53125-.523437-17.050781-2.34375-25.320312-5.035156-22.839844 5.804688-47.171875 26.964844-60.546875 52.359375-33.09375 83.238282-89.058594 82.597656-149.695313-.492187-46.777343-19.457031-90.582031-53.394531-123.347656zm-45.234375 247.683594c-15.480468 9.785156-27.503906 23.582031-34.769531 39.894531-7.449219 16.726563-9.339844 34.867188-5.460937 52.46875 1.285156 5.84375 1.84375 11.878907 1.652343 17.925781-.578125 18.582032-8.332031 36.265626-21.828125 49.792969-13.605468 13.640625-31.789062 21.804688-51.195312 22.984375-22.675782 1.378906-44.796875-6.757812-60.722656-22.332031-15.386719-15.046875-21.34375-37.632813-17.703126-67.128906 6.714844-54.414063 8.277344-120.578125-31.046874-198.699219-7.0625-14.03125-14.039063-35.539062-7.183594-58.316406 8.992187-29.886719 28.171875-56.773438 54-75.699219 26.777344-19.625 58.761718-29.835937 92.480468-29.667969 40.226563.257813 77.933594 15.414063 106.175782 42.675782 28.117187 27.144531 43.828125 63.398437 44.234375 102.082031.527343 50.160156-25.128907 96.523437-68.632813 124.019531zm0 0"/><path d="m113.957031 207.820312c-5.945312-5.761718-15.445312-5.613281-21.207031.335938-5.765625 5.949219-5.617188 15.445312.332031 21.210938 23.128907 22.410156 35.863281 52.222656 35.863281 83.945312 0 31.726562-12.734374 61.539062-35.863281 83.949219-5.949219 5.765625-6.097656 15.261719-.332031 21.210937 2.941406 3.035156 6.855469 4.5625 10.773438 4.5625 3.757812 0 7.523437-1.40625 10.4375-4.230468 29.007812-28.109376 44.984374-65.574219 44.984374-105.492188s-15.976562-77.382812-44.988281-105.492188zm0 0"/><path d="m4.425781 281.660156c-5.875 5.835938-5.90625 15.335938-.066406 21.210938 4.757813 4.789062 4.757813 12.582031 0 17.371094-5.839844 5.875-5.808594 15.371093.066406 21.210937 2.925781 2.910156 6.75 4.359375 10.574219 4.359375 3.855469 0 7.710938-1.476562 10.640625-4.425781 16.34375-16.449219 16.34375-43.210938 0-59.660157-5.839844-5.875-15.335937-5.90625-21.214844-.066406zm0 0"/><path d="m70.121094 250.300781c-5.953125-5.765625-15.449219-5.613281-21.210938.335938-5.765625 5.949219-5.617187 15.445312.332032 21.210937 11.460937 11.101563 17.769531 25.828125 17.769531 41.464844 0 15.640625-6.308594 30.367188-17.769531 41.46875-5.949219 5.765625-6.097657 15.261719-.332032 21.210938 2.941406 3.035156 6.851563 4.5625 10.773438 4.5625 3.757812 0 7.523437-1.40625 10.4375-4.226563 17.339844-16.804687 26.890625-39.183594 26.890625-63.015625 0-23.828125-9.550781-46.207031-26.890625-63.011719zm0 0"/></svg>