<svg id="Layer_1" data-name="Layer 1" xmlns="http://www.w3.org/2000/svg" viewBox="0 0 391.51 391.51"><defs><style>.cls-1{fill:#fff;}</style></defs><path d="M0,300.69V90.06C4.12,75.89,13.67,71.22,27.59,71.48c25.93.47,51.87.13,77.81.13,87,0,173.94.12,260.91-.12,14.92,0,24.49,10.7,24.48,23.38-.09,67,0,134-.14,201a25.84,25.84,0,0,1-2.45,11c-4.47,9.05-12.36,12.3-22.26,12.29q-170.5-.12-341-.06c-1.39,0-2.9.27-4.17-.16-4.13-1.4-8.46-2.57-12.18-4.75C3.6,311.31,1.78,305.9,0,300.69Zm195.37-55.76H122.11c-7.88,0-9.14,1.24-9.15,9v15.64c0,7.05,1.44,8.49,8.47,8.49h148c6.84,0,8.34-1.49,8.35-8.19q0-8.38,0-16.78c0-6.53-1.57-8.12-8.05-8.12Q232.57,244.91,195.37,244.93ZM228,211.58c3.56,0,7.12.09,10.68,0,3.91-.12,6-2,6.15-5.79q.25-10.68,0-21.36c-.09-3.83-2.25-5.82-6.07-5.88q-10.68-.14-21.36,0c-3.92.05-6,2-6.06,5.8q-.18,10.68,0,21.36c.06,3.85,2,5.74,6,5.87C220.91,211.68,224.47,211.58,228,211.58Zm65.63,0v0h9.92c.25,0,.51,0,.76,0,3.92-.22,6-2,6.13-5.81q.25-10.68,0-21.36c-.09-3.85-2.22-5.82-6.06-5.88q-10.68-.14-21.36,0c-3.91.05-6,2-6.06,5.8q-.18,10.68,0,21.36c.06,3.85,2,5.74,6,5.87C286.54,211.68,290.1,211.58,293.66,211.58ZM129.82,145.81c3.56,0,7.13.09,10.68,0,3.83-.12,5.9-2.1,6-6,.12-7.12.13-14.24,0-21.36-.07-3.35-1.91-5.59-5.43-5.65-7.5-.12-15-.11-22.5,0-3.48,0-5.47,2.1-5.54,5.52q-.19,10.86,0,21.73c.07,3.62,2.14,5.59,5.78,5.71S126.14,145.8,129.82,145.81Zm82.35-16.3c0-3.69.09-7.38,0-11.06-.11-3.42-1.93-5.57-5.43-5.63-7.49-.12-15-.1-22.5,0-3.51,0-5.46,2.18-5.54,5.55-.16,7.24-.15,14.49,0,21.74.08,3.62,2.19,5.63,5.83,5.68q10.88.16,21.74,0c3.86-.06,5.8-2.08,5.93-6C212.27,136.38,212.18,132.94,212.17,129.51Zm49,16.3c3.56,0,7.13.09,10.68,0,3.85-.13,5.89-2.11,5.95-5.95q.17-10.68,0-21.36c0-3.41-1.9-5.59-5.4-5.65-7.5-.14-15-.11-22.5,0-3.5,0-5.48,2.15-5.56,5.52-.17,7.24-.16,14.49,0,21.74.07,3.63,2.16,5.59,5.79,5.72S257.47,145.8,261.15,145.81ZM96.27,211.58v0c3.69,0,7.38.12,11.06,0s5.63-2.05,5.69-5.74q.18-10.68,0-21.37c-.06-3.86-2.07-5.83-6-5.88-7.11-.1-14.24-.09-21.36,0-3.87.05-6,2-6.16,5.79-.19,7.11-.18,14.24,0,21.36.1,3.85,2.2,5.75,6.06,5.88C89.15,211.67,92.71,211.58,96.27,211.58Zm66.28-33.08c-3.43,0-6.86-.05-10.3,0-4.6.08-6.55,1.92-6.6,6.44q-.14,10.1,0,20.21c0,4.41,1.9,6.34,6.23,6.4q10.49.15,21,0c4.15-.06,6.21-1.94,6.3-6q.25-10.48,0-21c-.1-4.08-2.2-5.93-6.3-6C169.42,178.44,166,178.51,162.55,178.5Zm-99-32.7c3.69,0,7.38.07,11.06,0,3.46-.07,5.61-1.92,5.69-5.37.16-7.37.15-14.75,0-22.11-.06-3.43-2-5.47-5.55-5.51-7.37-.08-14.75-.06-22.12,0-3.49,0-5.62,2-5.71,5.36q-.31,11.06,0,22.11c.09,3.55,2.28,5.54,6,5.56S60,145.81,63.58,145.8Zm263.51,0c3.43,0,6.86.05,10.29,0,4.21-.08,6.34-1.81,6.45-5.86.21-7.11.2-14.24,0-21.35-.11-4-2.1-5.75-6.07-5.81q-10.68-.18-21.36,0c-4,.06-5.93,1.85-6,5.82-.17,7.11-.18,14.24,0,21.35.1,3.93,2.12,5.73,6,5.84C320,145.89,323.53,145.81,327.09,145.82ZM63.35,278c3.68,0,7.37.1,11.06,0,4-.13,5.88-1.88,6-5.87.16-7.12.17-14.24,0-21.36-.1-3.9-2.14-5.73-6.09-5.78-7.11-.09-14.23,0-21.35,0-3.68,0-5.88,2-6,5.54-.19,7.36-.17,14.74,0,22.11.1,3.38,2.2,5.33,5.7,5.38S59.79,278,63.35,278ZM327.1,244.94c-3.56,0-7.12-.08-10.68,0-3.92.11-5.95,1.91-6,5.83-.18,7.11-.17,14.23,0,21.35.1,4,2,5.76,6,5.83q10.67.18,21.35,0c4-.06,6-1.85,6.09-5.79q.3-10.68,0-21.36c-.11-4-2.24-5.79-6.43-5.87C334,244.88,330.53,244.93,327.1,244.94Z"/><path class="cls-1" d="M0,300.69c1.78,5.21,3.6,10.62,8.57,13.53,3.72,2.18,8.05,3.35,12.18,4.75,1.27.43,2.78.16,4.17.16q170.52,0,341,.06c9.9,0,17.79-3.24,22.26-12.29a25.84,25.84,0,0,0,2.45-11c.14-67,.05-134,.14-201,0-12.68-9.56-23.42-24.48-23.38-87,.24-173.94.12-260.91.12-25.94,0-51.88.34-77.81-.13C13.67,71.22,4.12,75.89,0,90.06V0H391.51V391.51H0Z"/><path class="cls-1" d="M195.37,244.93q37.2,0,74.4,0c6.48,0,8,1.59,8.05,8.12q0,8.38,0,16.78c0,6.7-1.51,8.19-8.35,8.19h-148c-7,0-8.46-1.44-8.47-8.49V253.89c0-7.72,1.27-9,9.15-9Z"/><path class="cls-1" d="M228,211.58c-3.56,0-7.12.1-10.68,0-3.94-.13-5.93-2-6-5.87q-.17-10.68,0-21.36c.06-3.79,2.14-5.75,6.06-5.8q10.68-.14,21.36,0c3.82.06,6,2.05,6.07,5.88q.24,10.68,0,21.36c-.1,3.8-2.24,5.67-6.15,5.79C235.15,211.67,231.59,211.58,228,211.58Z"/><path class="cls-1" d="M293.66,211.58c-3.56,0-7.12.1-10.68,0-3.94-.13-5.92-2-6-5.87q-.17-10.68,0-21.36c.07-3.79,2.15-5.75,6.06-5.8q10.68-.14,21.36,0c3.84.06,6,2,6.06,5.88q.24,10.68,0,21.36c-.09,3.81-2.21,5.59-6.13,5.81-.25,0-.51,0-.76,0h-9.92Z"/><path class="cls-1" d="M129.82,145.81c-3.68,0-7.37.09-11.06,0s-5.71-2.09-5.78-5.71q-.18-10.86,0-21.73c.07-3.42,2.06-5.48,5.54-5.52,7.5-.1,15-.11,22.5,0,3.52.06,5.36,2.3,5.43,5.65.14,7.12.13,14.24,0,21.36-.07,3.86-2.14,5.84-6,6C137,145.9,133.38,145.81,129.82,145.81Z"/><path class="cls-1" d="M212.17,129.51c0,3.43.1,6.87,0,10.3-.13,3.89-2.07,5.91-5.93,6q-10.86.15-21.74,0c-3.64-.05-5.75-2.06-5.83-5.68-.14-7.25-.15-14.5,0-21.74.08-3.37,2-5.5,5.54-5.55,7.5-.08,15-.1,22.5,0,3.5.06,5.32,2.21,5.43,5.63C212.26,122.13,212.17,125.82,212.17,129.51Z"/><path class="cls-1" d="M261.15,145.81c-3.68,0-7.37.09-11.06,0s-5.72-2.09-5.79-5.72c-.15-7.25-.16-14.5,0-21.74.08-3.37,2.06-5.48,5.56-5.52,7.5-.08,15-.11,22.5,0,3.5.06,5.35,2.24,5.4,5.65q.17,10.68,0,21.36c-.06,3.84-2.1,5.82-5.95,5.95C268.28,145.9,264.71,145.81,261.15,145.81Z"/><path class="cls-1" d="M96.27,211.58c-3.56,0-7.12.09-10.68,0-3.86-.13-6-2-6.06-5.88-.17-7.12-.18-14.25,0-21.36.11-3.83,2.29-5.74,6.16-5.79,7.12-.08,14.25-.09,21.36,0,3.9.05,5.91,2,6,5.88q.16,10.68,0,21.37c-.06,3.69-2,5.6-5.69,5.74s-7.37,0-11.06,0Z"/><path class="cls-1" d="M162.55,178.5c3.44,0,6.87-.06,10.3,0,4.1.11,6.2,2,6.3,6q.25,10.49,0,21c-.09,4.08-2.15,6-6.3,6q-10.48.15-21,0c-4.33-.06-6.18-2-6.23-6.4q-.12-10.11,0-20.21c0-4.52,2-6.36,6.6-6.44C155.69,178.45,159.12,178.5,162.55,178.5Z"/><path class="cls-1" d="M63.58,145.81c-3.56,0-7.11,0-10.67,0s-5.87-2-6-5.56q-.29-11.06,0-22.11c.09-3.39,2.22-5.34,5.71-5.36,7.37,0,14.75-.06,22.12,0,3.5,0,5.49,2.08,5.55,5.51.12,7.36.13,14.74,0,22.11-.08,3.45-2.23,5.3-5.69,5.37C71,145.87,67.27,145.8,63.58,145.81Z"/><path class="cls-1" d="M327.09,145.81c-3.56,0-7.12.08-10.68,0-3.92-.11-5.94-1.91-6-5.84-.17-7.11-.16-14.24,0-21.35.09-4,2-5.76,6-5.82q10.68-.18,21.36,0c4,.06,6,1.86,6.07,5.81.2,7.11.21,14.24,0,21.35-.11,4.05-2.24,5.78-6.45,5.86C334,145.87,330.52,145.82,327.09,145.81Z"/><path class="cls-1" d="M63.35,278c-3.56,0-7.12,0-10.68,0s-5.6-2-5.7-5.38c-.19-7.37-.21-14.75,0-22.11.1-3.56,2.3-5.53,6-5.54,7.12,0,14.24-.08,21.35,0,4,0,6,1.88,6.09,5.78.18,7.12.17,14.24,0,21.36-.09,4-2,5.74-6,5.87C70.72,278.1,67,278,63.35,278Z"/><path class="cls-1" d="M327.1,244.94c3.43,0,6.87-.06,10.3,0,4.19.08,6.32,1.82,6.43,5.87q.32,10.68,0,21.36c-.11,3.94-2.11,5.73-6.09,5.79q-10.68.18-21.35,0c-4-.07-5.92-1.86-6-5.83-.16-7.12-.17-14.24,0-21.35.09-3.92,2.12-5.72,6-5.83C320,244.86,323.54,244.94,327.1,244.94Z"/></svg>