<svg id="light" xmlns="http://www.w3.org/2000/svg" viewBox="0 0 298.66 405.33"><path d="M253.86,42.66C226.13,14.93,187.73,0,147.2,0,68.26,2.13,2.13,66.13,0,147.2c0,46.93,19.2,89.6,57.6,119.46A87.59,87.59,0,0,1,77.07,290.5H221.83a77.92,77.92,0,0,1,21.37-26c36.26-27.73,55.46-70.4,55.46-115.2C298.66,108.8,281.6,70.4,253.86,42.66ZM234.66,172.5a22.66,22.66,0,0,1-23.16-23.17c0-33.7-28.47-62.17-62.17-62.17A22.66,22.66,0,0,1,126.16,64a22.66,22.66,0,0,1,23.17-23.17,108.1,108.1,0,0,1,108.5,108.5A22.66,22.66,0,0,1,234.66,172.5Z"/><path d="M218.33,301.33l-5,55.42c0,25.91-14.93,48.58-32,48.58h-64c-14.93,0-32-19.43-32-58.3l-5.22-45.7Z"/></svg>