<svg id="Layer_1" data-name="Layer 1" xmlns="http://www.w3.org/2000/svg" viewBox="0 0 432.95 522.18"><path d="M513.12,305c-.23,4.92.1,10-.83,14.73-1.4,7.23-3.59,14.31-5.59,21.41-4.53,16.06-11.67,31-19.57,45.66A153.74,153.74,0,0,1,476.85,403c-5.69,8-11.08,16.27-17.77,23.34-10.32,10.91-21.32,21.23-32.6,31.16a232.2,232.2,0,0,1-36.15,25.81c-11.74,6.87-23.62,13.58-35.85,19.52-13.23,6.42-26.82,12.13-40.46,17.65-9.42,3.82-19.13,7-28.81,10.12q-13.72,4.5-27.68,8.2c-11.12,2.94-22.3,5.72-33.56,8.06-13.44,2.79-27,5-40.49,7.53-1.92.36-2.75-.7-3.32-2.2-3.37-8.84-6.7-17.71-10.1-26.54-3.7-9.61-7.53-19.17-11.18-28.8s-7.12-19.25-10.74-28.86c-3.53-9.36-7.17-18.68-10.71-28-3.67-9.69-7.24-19.42-10.94-29.1-3-7.86-6.17-15.67-9.2-23.52-2.93-7.6-5.8-15.23-8.67-22.85-3.68-9.79-7.32-19.58-11-29.37-1.37-3.64-2.9-7.22-4.13-10.91-1.06-3.2-.56-3.78,2.69-3.22,2.54.43,5,1.23,7.54,1.9,11,2.94,21.87,6.05,32.87,8.8,7.45,1.85,15,3.28,22.53,4.78,8.88,1.78,17.79,3.44,26.69,5.12,1.37.26,2.76.4,4.14.61,16,2.42,32.15,3.09,48.32,3.42,5.94.12,11.87.93,17.8.83,8.81-.16,17.61-.72,26.4-1.37,6.38-.47,12.76-1.19,19.09-2.12,7.15-1,14.33-2.08,21.33-3.77,10-2.43,20-5.19,29.81-8.29a189.13,189.13,0,0,0,34-14.52,158.45,158.45,0,0,0,29.67-20.58c9.37-8.34,16.65-18.32,22.85-29.19,9.1-16,11.25-33.05,9.7-51.06-1.26-14.71-5.5-28.53-10.8-42.16-3.12-8-6.46-16-7-24.8-.12-2.17,1.56-3.84,3.63-3.12a11.33,11.33,0,0,1,4.22,2.07c3.4,3.4,6.57,7,9.8,10.6,3,3.38,5.93,6.92,9.12,10.16a214.08,214.08,0,0,1,43.18,66.54,154.67,154.67,0,0,1,9.28,32.61C512.33,279.87,514.47,292.36,513.12,305Z" transform="translate(-80.59 -32.26)"/><path d="M81.68,232.23c-.34-5.47-.87-10.93-1-16.4-.13-6.87-.16-13.76.22-20.61.51-9,1.13-18,2.32-26.9A207.79,207.79,0,0,1,87.69,146a155.27,155.27,0,0,1,5.55-17.5c4-10.59,9.64-20.38,15.57-30a119.08,119.08,0,0,1,36.86-38.73,152.42,152.42,0,0,1,17-10.44,117,117,0,0,1,30-10.91c9.8-2.06,19.63-4,29.51-5.63,4.09-.66,8.33-.44,12.51-.45,7,0,13.92-.15,20.84.29,9,.56,18,1.18,26.88,2.6,12.28,2,24.5,4.45,36.63,7.22,8,1.82,15.73,4.4,23.52,6.89s15.77,5.07,23.49,8.07,15.06,6.33,22.53,9.62,15,6.48,22.28,10.15c2.7,1.36,4.9,3.84,7.09,6,1.52,1.52.81,3.23-1.09,3.59-4.06.78-8.27,1.9-12.3,1.53-15.07-1.37-30.07-3.68-45.15-4.89-12.66-1-25.41-1.55-38.1-1.32a129.38,129.38,0,0,0-43.41,7.85c-9,3.38-18,7.24-25.33,13.67a66.2,66.2,0,0,0-14.32,18.67,87,87,0,0,0-9.66,32.26c-2.3,20.5-.23,40.75,3.26,60.94a416.14,416.14,0,0,0,13,52.41c3.33,10.68,7.54,21.08,11.42,31.59q5.36,14.46,10.86,28.86c.58,1.54,1.58,2.95,2,4.52.75,2.79-.48,4.15-3.35,3.73-5.51-.81-11-1.76-16.5-2.71q-14.65-2.55-29.31-5.17l-23.11-4.08-22.32-4c-7.83-1.39-15.67-2.75-23.5-4.14l-22.12-4c-10.28-1.85-20.55-3.84-30.86-5.51-4.44-.72-4.91-4.1-5.61-7.28q-3.28-14.56-6.12-29.29c-.84-4.28-1.32-8.62-1.88-12.94-.83-6.44-1.59-12.89-2.36-19.34-.23-1.93-.41-3.87-.61-5.81Z" transform="translate(-80.59 -32.26)"/><path d="M312.45,129.75a101.45,101.45,0,0,1,39,8.27A116.35,116.35,0,0,1,378,153.53,110.37,110.37,0,0,1,401.18,177c7.58,10.74,13.15,22.24,14.56,35.33a54.56,54.56,0,0,1-6.81,33.25,48.34,48.34,0,0,1-18.68,18.58,72.67,72.67,0,0,1-42.89,9.28c-8.92-.79-17.85-2.45-26.11-6.37-6.93-3.29-13.89-6.52-20.75-10a45.12,45.12,0,0,1-6-4.06,110.45,110.45,0,0,1-22.93-22.2,85.41,85.41,0,0,1-10.88-18.33c-4.67-11-8-22.63-6.45-34.68,1.75-13.61,7.31-25.45,18.51-34.37A60.68,60.68,0,0,1,312.45,129.75Z" transform="translate(-80.59 -32.26)"/></svg>