<svg id="Layer_1" data-name="Layer 1" xmlns="http://www.w3.org/2000/svg" viewBox="0 0 100.01 100"><path d="M106.1,14H21.91A7.91,7.91,0,0,0,14,21.91V106.1a7.92,7.92,0,0,0,7.91,7.9H106.1a7.91,7.91,0,0,0,7.91-7.91V21.91A7.91,7.91,0,0,0,106.1,14Zm-63,21.87a5.86,5.86,0,1,1-5.86,5.86A5.86,5.86,0,0,1,43.13,35.87ZM49,92.13H37.27V50.4H49Zm41.73.05H78.86v-24s0-5.73-5.63-5.73S67,66.45,67,68.31V92.13H55V50.4H67v6.21c0-.4.18-6.21,10.23-6.21,6.77,0,13.5,3.45,13.5,15.78Z" transform="translate(-14 -14)"/></svg>