<svg id="Layer_1" data-name="Layer 1" xmlns="http://www.w3.org/2000/svg" viewBox="0 0 256 256"><defs><style>.cls-1{fill:#fff;}</style></defs><path class="cls-1" d="M0,256V0H256V256ZM128.11,42.07C69.6,42,21.62,89.36,21.34,147.2,21.05,209.29,71.84,254.86,127.62,255c55.59.17,106.42-44.41,106.92-105.57A106,106,0,0,0,128.11,42.07ZM128,1.16q-12.48,0-25,0c-4.19,0-7.08,1.58-7.65,6.11-.95,7.62.5,12,5.29,12.88,3.93.72,4.82,2.5,4.72,6-.08,3.18,1.76,5,4.94,5,11.45-.06,22.89-.26,34.33-.37,3.82,0,6-1.71,6-5.67,0-2.6.54-4.1,3.69-4.7,5.71-1.07,7.31-4.95,6.26-13.13-.62-4.83-3.83-6.16-8.15-6.13C144.3,1.19,136.15,1.15,128,1.16Zm57.73,26.75c-1.93,2.51-3.83,4.92-5.68,7.37-2.55,3.36-1.93,5.78,1.69,8.2q13.88,9.26,27.35,19.12c3.35,2.45,5.86,2.89,8.25-.91A41.12,41.12,0,0,1,219.91,58c2.49-3.14,2.08-5.54-1.33-7.86-9.63-6.56-19.13-13.33-28.7-20C188.81,29.43,187.59,28.92,185.72,27.91Z"/><path d="M128.11,42.07A106,106,0,0,1,234.54,149.45C234,210.61,183.21,255.19,127.62,255,71.84,254.86,21.05,209.29,21.34,147.2,21.62,89.36,69.6,42,128.11,42.07Zm43.42,107.16v0H204c10,0,11.74-2.16,10-12C206.48,93.87,182.72,70,139.37,62.07c-8.7-1.58-11.76.93-11.77,9.68q0,34,0,68c0,7.48,1.87,9.43,9.44,9.48C148.54,149.3,160,149.23,171.53,149.23Z"/><path d="M128,1.16c8.16,0,16.31,0,24.47,0,4.32,0,7.53,1.3,8.15,6.13,1,8.18-.55,12.06-6.26,13.13-3.15.6-3.7,2.1-3.69,4.7,0,4-2.18,5.64-6,5.67-11.44.11-22.88.31-34.33.37-3.18,0-5-1.84-4.94-5,.1-3.47-.79-5.25-4.72-6-4.79-.89-6.24-5.26-5.29-12.88C96,2.74,98.84,1.16,103,1.16Q115.51,1.17,128,1.16Z"/><path d="M185.72,27.91c1.87,1,3.09,1.52,4.16,2.26,9.57,6.65,19.07,13.42,28.7,20,3.41,2.32,3.82,4.72,1.33,7.86a41.12,41.12,0,0,0-2.58,3.68c-2.39,3.8-4.9,3.36-8.25.91q-13.47-9.85-27.35-19.12c-3.62-2.42-4.24-4.84-1.69-8.2C181.89,32.83,183.79,30.42,185.72,27.91Z"/><path class="cls-1" d="M171.53,149.23c-11.5,0-23,.07-34.49,0-7.57-.05-9.43-2-9.44-9.48q0-34,0-68c0-8.75,3.07-11.26,11.77-9.68C182.72,70,206.48,93.87,214,137.21c1.72,9.88-.06,12-10,12H171.53Z"/></svg>