<svg id="Layer_1" data-name="Layer 1" xmlns="http://www.w3.org/2000/svg" viewBox="0 0 256 256"><defs><style>.cls-1{fill:#fff;}</style></defs><path class="cls-1" d="M256,256H0V0H256ZM87.3,213.26c.64,9.75,1.2,18.69,1.82,27.62.46,6.71,4.5,9.78,11.11,8.46q48-9.56,95.92-19.15c11.81-2.37,14.21-5,13.78-17.22a188.54,188.54,0,0,1,15.3-82.24c6.25-14.51,7.58-29.94,5.53-45.58-6.19-47.23-48.62-81.83-96.72-79C86.65,9,48.33,48.87,48.29,96.25c0,8.86-2.6,15.28-9.12,20.87a82.72,82.72,0,0,0-11.73,12.23c-5.08,6.64-3.51,12.48,3.8,16.47,2.33,1.27,5,2,7.1,3.6,1.62,1.21,3.4,3.15,3.73,5C44.55,168.69,46.59,183,49,197.3c1.64,9.91,6.88,15,17,15.85C72.83,213.73,79.82,213.26,87.3,213.26Z"/><path d="M87.3,213.26c-7.48,0-14.47.47-21.36-.11-10.09-.84-15.33-5.94-17-15.85-2.38-14.28-4.42-28.61-6.9-42.87-.33-1.86-2.11-3.8-3.73-5-2.1-1.56-4.77-2.33-7.1-3.6-7.31-4-8.88-9.83-3.8-16.47a82.72,82.72,0,0,1,11.73-12.23c6.52-5.59,9.11-12,9.12-20.87C48.33,48.87,86.65,9,134,6.16c48.1-2.84,90.53,31.76,96.72,79,2.05,15.64.72,31.07-5.53,45.58A188.54,188.54,0,0,0,209.93,213c.43,12.24-2,14.85-13.78,17.22q-48,9.6-95.92,19.15c-6.61,1.32-10.65-1.75-11.11-8.46C88.5,232,87.94,223,87.3,213.26Zm65.42-95.55a15.13,15.13,0,0,0,4.52,14.47c8,8,15.95,16.12,24.07,24,4.37,4.25,9.7,6.57,15.91,5.48,7.31-1.28,12.43-5.44,14.78-12.59,2.46-7.48,0-13.82-5.17-19.18-7.55-7.77-15.31-15.33-23-23-4.07-4.1-8.73-6.54-14.82-5.18,11.23-30.92,5.32-53-17.67-66.83-18.67-11.22-44.34-7.2-59.37,9.3a48.1,48.1,0,0,0-2.81,61.19C103.46,124.59,127.64,129.47,152.72,117.71Z"/><path class="cls-1" d="M152.72,117.71c-25.08,11.76-49.26,6.88-63.51-12.33A48.1,48.1,0,0,1,92,44.19c15-16.5,40.7-20.52,59.37-9.3,23,13.81,28.9,35.91,17.67,66.83,6.09-1.36,10.75,1.08,14.82,5.18,7.64,7.68,15.4,15.24,23,23,5.21,5.36,7.63,11.7,5.17,19.18-2.35,7.15-7.47,11.31-14.78,12.59-6.21,1.09-11.54-1.23-15.91-5.48-8.12-7.9-16.06-16-24.07-24A15.13,15.13,0,0,1,152.72,117.71Zm-53.89-41A28.8,28.8,0,1,0,127.5,47.82,28.52,28.52,0,0,0,98.83,76.67Z"/><path d="M98.83,76.67a28.8,28.8,0,1,1,28.86,28.73A28.37,28.37,0,0,1,98.83,76.67Z"/></svg>