<svg id="Layer_1" data-name="Layer 1" xmlns="http://www.w3.org/2000/svg" viewBox="0 0 511.03 511.03"><defs><style>.cls-1{fill:#fff;}</style></defs><path class="cls-1" d="M273,511H0V0H511V511H279q33.54-14.46,67.09-28.93c9.62-4.15,11.38-8.72,7.21-18.47q-26.9-62.88-53.8-125.75c-2.53-5.9-5-11.81-7.73-18.22h6.09q49.58,0,99.15,0c9.55,0,16.56-5.81,17.36-14.38.61-6.54-2.81-11.3-7.21-15.69q-90.24-90.12-180.42-180.32Q175.29,57.83,123.82,6.43c-5.8-5.79-12.2-7.09-19-3.86s-9.44,9-9.44,16.56q.14,194.28.07,388.57c0,1.16,0,2.33.07,3.49a15.62,15.62,0,0,0,12.93,14.4c5.68,1,10.34-.91,14.59-4.63q33-28.87,66.08-57.62c4-3.45,8-6.87,12.31-10.61,1,2.19,1.83,3.77,2.53,5.4,20.36,47.54,40.64,95.13,61.2,142.59C266.81,504.57,270.35,507.62,273,511Z"/><path d="M273,511c-2.67-3.41-6.21-6.46-7.88-10.31-20.56-47.46-40.84-95.05-61.2-142.59-.7-1.63-1.5-3.21-2.53-5.4-4.34,3.74-8.34,7.16-12.31,10.61Q156,392.14,123,421c-4.25,3.72-8.91,5.67-14.59,4.63a15.62,15.62,0,0,1-12.93-14.4c-.07-1.16-.07-2.33-.07-3.49q0-194.28-.07-388.57c0-7.58,2.47-13.26,9.44-16.56s13.22-1.93,19,3.86q51.47,51.41,102.92,102.82Q317,199.42,407.16,289.57c4.4,4.39,7.82,9.15,7.21,15.69-.8,8.57-7.81,14.37-17.36,14.38q-49.58.06-99.15,0h-6.09c2.71,6.41,5.2,12.32,7.73,18.22q26.89,62.88,53.8,125.75c4.17,9.75,2.41,14.32-7.21,18.47Q312.57,496.59,279,511Z"/></svg>