<svg id="Layer_1" data-name="Layer 1" xmlns="http://www.w3.org/2000/svg" viewBox="0 0 256 256"><defs><style>.cls-1{fill:#fff;}</style></defs><path class="cls-1" d="M0,256V0H256V256ZM165.63,32c-12.15,0-24.31,0-36.47,0-12.74.06-22.09,8.73-22.37,20.65-.29,12.34,8.62,21.84,21.53,22q37,.42,74,0c12.75-.11,22-9.8,21.72-21.92-.28-11.85-9.77-20.68-22.38-20.73C189.62,32,177.63,32,165.63,32Zm-.22,192c12,0,24,0,36,0,12.92-.05,22.46-9,22.6-21s-9.21-21.58-22-21.67q-36.74-.24-73.47,0c-12.84.1-22,9.5-21.75,21.8.19,12,9.54,20.82,22.15,20.89C141.08,224.05,153.24,224,165.41,224Zm0-74.79v0c11.83,0,23.65,0,35.48,0a29.68,29.68,0,0,0,7.88-.87,21.22,21.22,0,0,0,15.15-23c-1.35-10.31-9.85-18.42-20.34-18.5-25.48-.2-51-.07-76.45,0a18.36,18.36,0,0,0-5.38.88c-10.24,3.16-16.18,12.78-14.73,23.68a20.84,20.84,0,0,0,20.42,17.77C140.05,149.38,152.71,149.21,165.36,149.21ZM80,128.2a26.61,26.61,0,1,0-53.22-.4,26.56,26.56,0,0,0,26.35,26.91A26.85,26.85,0,0,0,80,128.2Zm-26.91,101A26.61,26.61,0,1,0,26.76,202.4,26.56,26.56,0,0,0,53.08,229.22ZM26.77,53.13A26.61,26.61,0,1,0,53.53,26.77,26.29,26.29,0,0,0,26.77,53.13Z"/><path d="M165.63,32c12,0,24,0,36,0,12.61.05,22.1,8.88,22.38,20.73.29,12.12-9,21.81-21.72,21.92q-37,.34-74,0c-12.91-.14-21.82-9.64-21.53-22,.28-11.92,9.63-20.59,22.37-20.65C141.32,32,153.48,32,165.63,32Z"/><path d="M165.41,224c-12.17,0-24.33.05-36.49,0-12.61-.07-22-8.94-22.15-20.89-.2-12.3,8.91-21.7,21.75-21.8q36.73-.27,73.47,0c12.79.09,22.15,9.54,22,21.67s-9.68,21-22.6,21C189.4,224,177.4,224,165.41,224Z"/><path d="M165.36,149.21c-12.65,0-25.31.17-38-.05A20.84,20.84,0,0,1,107,131.39c-1.45-10.9,4.49-20.52,14.73-23.68a18.36,18.36,0,0,1,5.38-.88c25.48-.06,51-.19,76.45,0,10.49.08,19,8.19,20.34,18.5a21.22,21.22,0,0,1-15.15,23,29.68,29.68,0,0,1-7.88.87c-11.83.09-23.65,0-35.48,0Z"/><path d="M80,128.2a26.85,26.85,0,0,1-26.87,26.51,26.72,26.72,0,0,1,.41-53.43A26.85,26.85,0,0,1,80,128.2Z"/><path d="M53.08,229.22a26.61,26.61,0,0,1,.5-53.22,26.61,26.61,0,1,1-.5,53.22Z"/><path d="M26.77,53.13a26.61,26.61,0,0,1,53.22.4,26.61,26.61,0,1,1-53.22-.4Z"/></svg>