<svg id="Capa_1" data-name="Capa 1" xmlns="http://www.w3.org/2000/svg" viewBox="0 0 575.32 575.84"><path d="M346,345c-25.55,24.67-25.19,65.8-.07,90.92l41.89,41.89a2.91,2.91,0,0,1,0,4.12L298.3,571.43a15,15,0,0,1-21.28,0l-89.89-89.88a2.82,2.82,0,0,0-4,0L162.67,502c-25.11,25.12-66.25,25.48-90.91-.07a63.28,63.28,0,0,1,.8-88.57l21.09-21.09a3,3,0,0,0,0-4.2L4.39,298.81a15.7,15.7,0,0,1,0-21.78L94,187.43a2.91,2.91,0,0,1,4.09,0L140,229.34c25.11,25.12,66.25,25.48,90.91-.07a63.27,63.27,0,0,0-.8-88.57L187.47,98.07a2.91,2.91,0,0,1,0-4.12L277,4.41a15,15,0,0,1,21.28,0L388.1,94.2a3,3,0,0,0,4.19,0l20.36-20.36c25.11-25.11,66.25-25.48,90.91.08a63.26,63.26,0,0,1-.8,88.56l-21.1,21.1a3,3,0,0,0,0,4.19L570.93,277a15.7,15.7,0,0,1,0,21.78l-89.68,89.68a2.79,2.79,0,0,1-3.93,0L434.6,345.76A63.28,63.28,0,0,0,346,345Z"/></svg>