<svg id="Layer_1" data-name="Layer 1" xmlns="http://www.w3.org/2000/svg" viewBox="0 0 256 256"><defs><style>.cls-1{fill:#fff;}</style></defs><path class="cls-1" d="M0,256V0H256V256ZM53.24,127.64c0,13.83-.09,27.65,0,41.48.17,19.75,13.59,33.44,33.25,33.57q41.47.28,83,0c19.45-.13,32.92-13.67,33.24-33.08.16-9.66.08-19.32,0-29-.05-7.71-4.11-12.48-10.53-12.6-6.62-.13-10.88,4.77-10.93,12.69-.06,9,0,18,0,27,0,10.13-3.38,13.53-13.45,13.53q-39.72,0-79.46,0c-10.16,0-13.57-3.37-13.58-13.39q0-39.24,0-78.47c0-11.73,3-14.63,14.83-14.64,15.83,0,31.65.06,47.48,0,7.4,0,12-4.1,12.15-10.4.15-6.61-4.47-11-12-11q-24.75-.14-49.48,0c-20.92.07-34.37,13.52-34.46,34.41C53.2,101,53.24,114.31,53.24,127.64Zm84.35-7.72c-.75-.14-1-.11-1.06-.2-4.76-4.66-9.44-9.4-14.26-14-6.14-5.84-14.46-5.93-20.18-.36s-5.79,14.39.23,20.53q13.82,14.09,27.92,27.9c7,6.81,17.15,5.76,22.3-2.47q23.19-37,45.89-74.33a17.31,17.31,0,0,0,2-10.4c-.78-6.18-5.08-9.93-11.18-11.3-5.6-1.25-11.36,1.38-14.88,6.87C162.09,81.38,149.88,100.62,137.59,119.92Z"/><path d="M53.24,127.64c0-13.33,0-26.66,0-40,.09-20.89,13.54-34.34,34.46-34.41q24.74-.07,49.48,0c7.54,0,12.16,4.43,12,11-.15,6.3-4.75,10.37-12.15,10.4-15.83.09-31.65,0-47.48,0-11.88,0-14.82,2.91-14.83,14.64q0,39.24,0,78.47c0,10,3.42,13.38,13.58,13.39q39.74,0,79.46,0c10.07,0,13.42-3.4,13.45-13.53,0-9,0-18,0-27,.05-7.92,4.31-12.82,10.93-12.69,6.42.12,10.48,4.89,10.53,12.6.07,9.67.15,19.33,0,29-.32,19.41-13.79,32.95-33.24,33.08q-41.48.27-83,0c-19.66-.13-33.08-13.82-33.25-33.57C53.15,155.29,53.24,141.47,53.24,127.64Z"/><path d="M137.59,119.92c12.29-19.3,24.5-38.54,36.79-57.74,3.52-5.49,9.28-8.12,14.88-6.87,6.1,1.37,10.4,5.12,11.18,11.3a17.31,17.31,0,0,1-2,10.4q-22.62,37.36-45.89,74.33c-5.15,8.23-15.31,9.28-22.3,2.47Q116.1,140,102.32,125.91c-6-6.14-6-14.91-.23-20.53s14-5.48,20.18.36c4.82,4.58,9.5,9.32,14.26,14C136.62,119.81,136.84,119.78,137.59,119.92Z"/></svg>