<svg id="Layer_1" enable-background="new 0 0 512 512" height="512" viewBox="0 0 512 512" width="512" xmlns="http://www.w3.org/2000/svg"><g><path d="m304.2 425.767h-96.4c-8.284 0-15 6.716-15 15s6.716 15 15 15h96.4c8.284 0 15-6.716 15-15s-6.716-15-15-15z"/><path d="m298.188 333.205c3.15-6.32 4.931-13.442 4.931-20.983 0-26.023-21.096-47.119-47.119-47.119-7.543 0-14.666 1.782-20.987 4.933l-70.654-70.657c-5.857-5.858-15.355-5.858-21.213 0-5.858 5.857-5.858 15.354 0 21.213l70.659 70.662c-3.145 6.316-4.923 13.433-4.923 20.968 0 26.023 21.096 47.119 47.119 47.119 7.537 0 14.655-1.779 20.972-4.925l16.621 16.623c5.858 5.858 15.354 5.86 21.213.002 5.858-5.857 5.859-15.354.001-21.213zm-42.188-3.864c-9.439 0-17.119-7.679-17.119-17.118s7.679-17.119 17.119-17.119 17.119 7.68 17.119 17.119-7.68 17.118-17.119 17.118z"/><path d="m256 56.233c-141.159 0-256 114.841-256 256 0 44.99 11.862 89.257 34.305 128.017 4.146 7.16 13.308 9.609 20.474 5.476.003-.002 41.751-24.102 41.751-24.102 7.174-4.142 9.632-13.315 5.49-20.49-4.142-7.174-13.314-9.635-20.49-5.49l-28.332 16.357c-13.014-26.421-20.719-55.265-22.68-84.767h32.682c8.284 0 15-6.716 15-15s-6.716-15-15-15h-32.69c1.992-30.246 9.957-58.883 22.731-84.743l28.29 16.333c7.176 4.145 16.35 1.684 20.49-5.49 4.142-7.175 1.684-16.349-5.49-20.49l-28.255-16.314c16.445-24.478 37.544-45.577 62.022-62.022l16.312 28.252c4.142 7.175 13.316 9.635 20.49 5.49 7.174-4.143 9.632-13.316 5.49-20.49l-16.332-28.287c25.86-12.773 54.498-20.733 84.742-22.728v32.689c0 8.284 6.716 15 15 15s15-6.716 15-15v-32.689c30.244 1.995 58.882 9.956 84.742 22.728l-16.332 28.287c-4.142 7.174-1.684 16.348 5.49 20.49 7.174 4.145 16.348 1.685 20.49-5.49l16.312-28.252c24.478 16.444 45.578 37.543 62.022 62.022l-28.254 16.312c-7.174 4.142-9.632 13.315-5.49 20.49 4.141 7.174 13.314 9.635 20.49 5.49l28.29-16.333c12.773 25.86 20.739 54.497 22.731 84.743h-32.691c-8.284 0-15 6.716-15 15s6.716 15 15 15h32.682c-1.961 29.502-9.666 58.346-22.68 84.767l-28.332-16.357c-7.176-4.145-16.348-1.684-20.49 5.49-4.142 7.175-1.684 16.349 5.49 20.49 0 0 41.748 24.1 41.751 24.102 7.167 4.133 16.328 1.685 20.474-5.476 22.443-38.758 34.305-83.024 34.305-128.015 0-141.159-114.841-256-256-256z"/></g></svg>