<?xml version="1.0" ?><svg data-name="Layer 1" id="Layer_1" viewBox="0 0 128 128" xmlns="http://www.w3.org/2000/svg"><defs><style>.cls-1{fill:#062b31;}.cls-2{fill:none;stroke:#062b31;stroke-miterlimit:10;stroke-width:6.5px;}</style></defs><title/><path class="cls-1" d="M64,16A47.5,47.5,0,1,1,16.5,63.5,47.55,47.55,0,0,1,64,16m0-6.5a54,54,0,1,0,54,54,54,54,0,0,0-54-54Z"/><path class="cls-1" d="M65.08,16c2.09,0,5.78,3.66,8.93,11.69,3.71,9.46,5.75,22.18,5.75,35.81s-2,26.35-5.75,35.81c-3.15,8-6.83,11.69-8.93,11.69s-5.78-3.66-8.93-11.69C52.45,89.85,50.4,77.13,50.4,63.5s2-26.35,5.75-35.81C59.31,19.65,63,16,65.08,16m0-6.5c-11.7,0-21.18,24.18-21.18,54s9.48,54,21.18,54,21.18-24.18,21.18-54-9.48-54-21.18-54Z"/><line class="cls-2" x1="17.66" x2="112.5" y1="80.37" y2="80.37"/><line class="cls-2" x1="17.66" x2="112.5" y1="46.62" y2="46.62"/></svg>