<svg id="Layer_1" data-name="Layer 1" xmlns="http://www.w3.org/2000/svg" viewBox="0 0 108 108"><defs><style>.cls-1{fill:none;stroke:#000;stroke-miterlimit:10;stroke-width:6.5px;}</style></defs><path d="M64,16A47.5,47.5,0,1,1,16.5,63.5,47.5,47.5,0,0,1,64,16m0-6.5a54,54,0,1,0,54,54A54,54,0,0,0,64,9.5Z" transform="translate(-10 -9.5)"/><path d="M65.08,16c2.09,0,5.78,3.66,8.93,11.69,3.71,9.46,5.75,22.18,5.75,35.81s-2,26.35-5.75,35.81c-3.15,8-6.83,11.69-8.93,11.69s-5.78-3.66-8.93-11.69c-3.7-9.46-5.75-22.18-5.75-35.81s2-26.35,5.75-35.81C59.31,19.65,63,16,65.08,16m0-6.5c-11.7,0-21.18,24.18-21.18,54s9.48,54,21.18,54,21.18-24.18,21.18-54S76.78,9.5,65.08,9.5Z" transform="translate(-10 -9.5)"/><line class="cls-1" x1="7.66" y1="70.87" x2="102.5" y2="70.87"/><line class="cls-1" x1="7.66" y1="37.12" x2="102.5" y2="37.12"/></svg>